<?xml version="1.0" standalone="no"?>
<!DOCTYPE svg PUBLIC "-//W3C//DTD SVG 20010904//EN"
 "http://www.w3.org/TR/2001/REC-SVG-20010904/DTD/svg10.dtd">
<svg version="1.0" xmlns="http://www.w3.org/2000/svg"
 width="1129.000000pt" height="987.000000pt" viewBox="0 0 1129.000000 987.000000"
 preserveAspectRatio="xMidYMid meet">

<g transform="translate(0.000000,987.000000) scale(0.100000,-0.100000)"
fill="#000000" stroke="none">
<path d="M7170 8779 c-394 -18 -770 -89 -1160 -219 -656 -218 -1277 -592
-1873 -1127 -65 -58 -116 -109 -115 -113 3 -7 281 -299 497 -522 l94 -97 71
67 c233 220 543 446 841 613 160 89 277 144 465 219 l145 58 36 99 c76 208
152 327 308 484 164 164 314 257 521 323 142 46 232 60 380 60 521 -1 929
-321 1144 -896 20 -53 36 -101 36 -105 0 -4 37 -21 83 -36 503 -172 961 -447
1306 -783 l113 -111 334 330 c326 322 334 330 317 350 -31 34 -262 229 -393
331 -155 121 -480 339 -660 442 -567 325 -1187 536 -1787 608 -108 14 -515 39
-533 34 -3 -1 -79 -5 -170 -9z"/>
<path d="M1326 8665 c-189 -82 -328 -214 -431 -408 l-44 -82 -7 -2670 -7
-2671 22 -74 c77 -255 213 -421 409 -504 131 -55 137 -56 782 -54 327 1 573 4
545 8 -27 4 -41 8 -30 9 12 2 15 5 7 8 -10 4 -12 112 -12 511 1 401 -2 507
-12 514 -9 5 -5 8 12 8 19 1 21 3 10 9 -8 5 -220 12 -470 16 l-455 8 3 2313 2
2314 498 2 c273 1 470 4 437 8 -33 4 -52 7 -42 8 16 2 17 27 17 377 l0 374 83
4 c45 1 -215 4 -578 5 l-660 2 -79 -35z m1187 -6452 c-7 -2 -19 -2 -25 0 -7 3
-2 5 12 5 14 0 19 -2 13 -5z"/>
<path d="M4349 5171 l-29 -29 0 -482 0 -482 29 -29 c48 -48 111 -36 137 26 10
25 14 81 14 210 l0 175 280 0 280 0 0 -189 c0 -189 0 -190 26 -220 46 -55 123
-36 144 37 14 50 14 894 0 944 -20 71 -89 90 -141 39 l-29 -29 0 -191 0 -191
-280 0 -280 0 0 175 c0 129 -4 185 -14 210 -26 62 -89 74 -137 26z"/>
<path d="M2248 5176 c-91 -25 -154 -82 -200 -182 -22 -46 -23 -63 -26 -306 -3
-207 0 -268 12 -317 26 -100 76 -164 170 -214 40 -22 48 -22 449 -22 l409 0
24 28 c32 38 33 96 0 133 -20 24 -32 28 -89 32 l-65 4 19 32 c17 28 19 53 19
298 0 244 -2 272 -20 322 -26 69 -88 140 -154 174 -50 26 -54 27 -276 29 -162
2 -238 -1 -272 -11z m490 -202 c53 -37 57 -60 57 -319 0 -262 -2 -271 -58
-305 -29 -18 -52 -20 -245 -20 -128 0 -221 4 -233 10 -10 6 -28 28 -39 50 -18
36 -20 59 -20 279 l0 239 27 32 c14 18 36 36 47 40 12 5 116 9 231 9 175 1
214 -2 233 -15z"/>
<path d="M3216 5175 c-14 -15 -16 -67 -16 -515 0 -440 2 -500 16 -514 13 -14
59 -16 348 -16 342 0 420 7 487 40 149 76 173 316 45 458 l-37 40 26 37 c36
53 48 109 43 195 -7 120 -63 206 -168 261 -44 24 -50 24 -386 27 -305 3 -343
1 -358 -13z m684 -200 c38 -20 52 -46 52 -103 0 -41 -5 -51 -36 -79 l-36 -33
-250 0 -250 0 0 115 0 115 245 0 c200 0 251 -3 275 -15z m40 -430 c40 -21 60
-53 60 -97 0 -52 -17 -85 -55 -103 -27 -12 -80 -15 -299 -15 l-266 0 0 115 0
115 265 0 c216 0 271 -3 295 -15z"/>
<path d="M8715 3843 c-211 -127 -396 -215 -647 -306 l-28 -9 0 -118 0 -117
-455 -7 c-250 -4 -467 -11 -482 -16 -24 -7 -20 -9 27 -11 52 -2 53 -3 12 -6
l-42 -4 2 -534 3 -535 -40 -5 c-22 -3 -56 -6 -75 -8 -19 -2 246 -4 590 -5
l625 -2 111 38 c145 50 241 107 335 201 60 59 85 95 117 161 71 147 73 161 70
795 l-3 561 -120 -73z"/>
<path d="M7085 1680 c11 -5 38 -10 60 -11 37 -2 36 -3 -15 -9 l-55 -7 45 -2
45 -3 -33 -9 -33 -10 2 -254 1 -255 26 -6 c46 -10 48 -13 10 -11 -21 0 -40 -2
-44 -6 -4 -4 47 -7 114 -7 l122 0 0 300 0 300 -132 -1 c-84 0 -126 -4 -113 -9z
m114 -556 c10 -9 -55 -3 -69 6 -10 6 -2 7 25 3 22 -3 42 -7 44 -9z"/>
<path d="M2346 1662 c-3 -3 -6 -133 -6 -289 l0 -283 108 0 c59 0 114 5 122 10
13 9 13 10 0 10 -13 0 -13 2 -1 9 11 7 6 12 -20 19 -25 8 -28 10 -11 11 l22 1
0 249 c0 229 1 250 18 254 9 2 -29 6 -85 8 -59 2 -99 0 -96 -5 4 -5 0 -5 -8 0
-18 11 -36 14 -43 6z m207 -539 c-7 -2 -19 -2 -25 0 -7 3 -2 5 12 5 14 0 19
-2 13 -5z m-10 -20 c-13 -2 -33 -2 -45 0 -13 2 -3 4 22 4 25 0 35 -2 23 -4z"/>
<path d="M7048 1093 c7 -3 16 -2 19 1 4 3 -2 6 -13 5 -11 0 -14 -3 -6 -6z"/>
</g>
</svg>
